<?xml version="1.0" standalone="no"?>
<!DOCTYPE svg PUBLIC "-//W3C//DTD SVG 20010904//EN"
 "http://www.w3.org/TR/2001/REC-SVG-20010904/DTD/svg10.dtd">
<svg version="1.0" xmlns="http://www.w3.org/2000/svg"
 width="988.000000pt" height="988.000000pt" viewBox="0 0 988.000000 988.000000"
 preserveAspectRatio="xMidYMid meet">
<metadata>
Created by potrace 1.14, written by Peter Selinger 2001-2017
</metadata>
<g transform="translate(0.000000,988.000000) scale(0.100000,-0.100000)"
fill="#000000" stroke="none">
<path d="M4678 9725 c-1 -2 -39 -6 -83 -9 -302 -24 -646 -90 -1005 -191 -521
-147 -1034 -402 -1482 -736 -51 -38 -104 -77 -117 -86 -13 -10 -29 -23 -35
-28 -6 -6 -47 -40 -90 -75 -145 -119 -385 -351 -496 -480 -30 -35 -62 -71 -70
-79 -28 -30 -186 -235 -262 -341 -301 -420 -525 -875 -667 -1353 -33 -110 -74
-265 -86 -327 -2 -8 -8 -33 -13 -55 -6 -22 -13 -51 -16 -65 -2 -14 -14 -72
-26 -130 -11 -58 -23 -127 -26 -155 -3 -27 -7 -57 -9 -65 -2 -8 -7 -37 -10
-65 -3 -27 -8 -63 -10 -80 -14 -109 -20 -254 -20 -490 0 -234 5 -337 20 -470
2 -16 6 -57 10 -90 3 -33 8 -71 11 -85 8 -47 11 -65 18 -113 4 -27 9 -57 12
-68 2 -10 6 -29 9 -42 29 -139 40 -190 67 -297 124 -513 312 -955 592 -1395
59 -93 170 -255 198 -290 5 -5 29 -37 53 -70 25 -33 51 -67 58 -75 7 -8 29
-35 48 -60 19 -24 45 -57 59 -71 14 -15 45 -51 70 -80 57 -67 299 -309 369
-369 29 -25 65 -56 79 -70 15 -14 36 -32 48 -40 11 -8 38 -30 60 -48 131 -110
397 -294 594 -412 274 -164 637 -326 946 -423 75 -24 328 -92 378 -101 12 -3
59 -13 106 -24 47 -11 101 -23 120 -26 19 -3 46 -8 60 -11 31 -6 146 -25 180
-30 14 -1 50 -6 80 -10 30 -3 62 -8 70 -10 73 -19 669 -27 845 -12 130 11 183
17 245 27 30 5 77 12 103 15 27 3 67 9 90 14 23 5 62 13 87 16 24 4 47 8 51
10 3 2 21 7 40 10 19 3 52 11 74 17 22 5 51 12 65 15 14 2 77 18 140 34 593
153 1121 410 1638 797 65 48 126 94 137 103 345 288 577 529 820 855 386 515
644 1048 795 1639 17 66 32 129 34 140 3 11 13 58 24 105 11 47 23 101 26 120
3 19 8 46 11 60 10 52 25 136 29 175 3 22 8 59 11 83 26 205 29 272 30 557 0
243 -4 344 -20 480 -2 17 -6 57 -10 90 -24 214 -116 638 -196 900 -96 312
-262 685 -426 959 -29 49 -53 93 -53 98 0 4 -4 8 -8 8 -5 0 -14 10 -20 23 -25
47 -50 85 -122 187 -41 58 -78 110 -82 115 -5 6 -29 37 -53 70 -25 33 -51 67
-57 75 -7 8 -35 41 -61 75 -111 138 -371 407 -502 520 -32 28 -63 55 -69 60
-6 6 -49 41 -96 78 -47 37 -93 74 -103 82 -9 8 -20 15 -23 15 -3 0 -11 6 -18
13 -14 14 -24 21 -159 117 -54 39 -100 70 -103 70 -8 0 -89 55 -92 63 -2 4 -7
7 -11 7 -5 0 -48 24 -97 54 -267 161 -644 328 -959 424 -237 73 -655 167 -835
188 -25 3 -56 7 -70 9 -14 3 -56 8 -95 11 -38 4 -83 8 -100 11 -35 5 -642 13
-647 8z m642 -308 c19 -3 67 -8 105 -12 39 -3 81 -8 95 -10 14 -2 43 -6 65 -8
22 -3 69 -10 105 -16 61 -10 80 -14 140 -26 14 -2 39 -7 55 -10 17 -2 100 -22
186 -44 574 -146 1115 -404 1584 -756 118 -89 134 -102 264 -214 141 -120 361
-340 457 -456 113 -136 146 -177 211 -266 71 -95 243 -353 243 -363 0 -3 16
-31 37 -63 62 -97 218 -420 286 -593 140 -356 236 -727 283 -1100 23 -185 28
-292 28 -555 1 -276 -4 -373 -29 -570 -15 -116 -23 -163 -46 -284 -12 -57 -23
-116 -25 -130 -3 -14 -20 -85 -39 -158 -168 -644 -475 -1239 -910 -1763 -110
-132 -427 -448 -565 -561 -489 -404 -1018 -687 -1610 -864 -63 -19 -126 -36
-140 -39 -14 -3 -50 -12 -80 -20 -30 -8 -66 -17 -80 -20 -14 -2 -72 -14 -130
-25 -58 -11 -125 -23 -150 -26 -25 -4 -53 -9 -62 -11 -9 -1 -41 -5 -70 -8 -29
-4 -69 -8 -88 -10 -231 -28 -749 -28 -960 -1 -19 2 -55 7 -80 10 -130 16 -190
26 -310 50 -14 2 -38 7 -55 10 -16 2 -100 22 -186 44 -484 123 -943 325 -1359
598 -110 72 -295 208 -369 269 -400 334 -677 642 -945 1052 -47 72 -86 133
-86 136 0 3 -16 31 -36 62 -62 97 -220 423 -287 594 -90 227 -197 583 -221
730 -3 19 -8 46 -11 60 -2 14 -7 36 -10 50 -2 14 -7 41 -10 60 -3 19 -8 42
-10 50 -2 8 -6 35 -9 60 -3 25 -8 65 -11 90 -23 177 -30 301 -30 550 0 135 4
290 8 345 12 155 17 207 22 235 3 14 7 45 10 70 3 25 10 68 15 95 5 28 12 66
15 85 3 19 8 42 10 50 2 8 6 31 9 51 3 20 10 48 15 63 6 14 9 26 7 26 -2 0 2
24 10 53 8 28 17 64 20 80 13 68 111 367 171 517 263 666 687 1264 1238 1746
403 353 872 630 1408 831 67 25 127 46 132 47 6 2 48 14 95 29 304 94 643 158
965 182 50 4 92 9 93 10 6 5 583 -3 622 -8z"/>
<path d="M4286 7802 c-2 -1 -413 -3 -914 -5 -597 -1 -913 -5 -915 -12 -2 -5
-3 -302 -3 -660 l1 -650 735 2 c404 1 1370 3 2145 5 l1410 2 59 -27 c121 -56
205 -188 253 -402 18 -83 26 -351 12 -440 -43 -275 -157 -463 -306 -504 -25
-7 -306 -11 -825 -11 l-788 0 0 -987 0 -988 65 115 c36 63 69 122 75 130 6 8
13 22 17 30 15 32 205 365 213 373 4 5 124 8 266 7 723 -5 1455 -3 1504 3 324
44 658 281 897 637 83 124 160 298 181 410 12 61 7 501 -13 1250 -2 63 -6 270
-10 460 -7 382 -11 415 -70 526 -73 138 -196 278 -389 442 -95 80 -309 204
-436 251 -144 54 -66 51 -1673 49 -819 -2 -1490 -4 -1491 -6z"/>
<path d="M2440 5082 c-7 -3 -10 -549 -10 -1613 l0 -1609 659 0 660 0 -2 1612
-2 1613 -648 0 c-356 0 -652 -1 -657 -3z"/>
</g>
</svg>
